<svg width="48" height="48" viewBox="0 0 48 48" fill="none" xmlns="http://www.w3.org/2000/svg">
<path fill-rule="evenodd" clip-rule="evenodd" d="M33.0272 42.9998H16.3316C10.1989 42.9998 5.49406 40.7847 6.83044 31.8694L8.38651 19.787C9.21031 15.3385 12.0478 13.636 14.5375 13.636H34.8945C37.4208 13.636 40.0936 15.4666 41.0455 19.787L42.6016 31.8694C43.7366 39.7779 39.16 42.9998 33.0272 42.9998Z" stroke="#130F26" stroke-width="2" stroke-linecap="round" stroke-linejoin="round"/>
<path d="M33.302 13.1967C33.302 8.42457 29.4334 4.55599 24.6612 4.55599V4.55599C22.3632 4.54625 20.156 5.45231 18.5276 7.07382C16.8993 8.69532 15.9839 10.8987 15.9839 13.1967H15.9839" stroke="#130F26" stroke-width="2" stroke-linecap="round" stroke-linejoin="round"/>
<path d="M30.5924 22.2037H30.5009" stroke="#130F26" stroke-width="3" stroke-linecap="round" stroke-linejoin="round"/>
<path d="M18.9313 22.2037H18.8398" stroke="#130F26" stroke-width="3" stroke-linecap="round" stroke-linejoin="round"/>
</svg>
