<svg width="20" height="21" viewBox="0 0 20 21" fill="none" xmlns="http://www.w3.org/2000/svg">
<g clip-path="url(#clip0_8_12543)">
<path opacity="0.12" d="M13.5703 17.8101C15.0792 17.8101 15.8337 17.8101 16.3907 17.5086C16.88 17.2437 17.2669 16.8232 17.4902 16.3136C17.7444 15.7336 17.6817 14.9816 17.5565 13.4779L16.9732 6.47789C16.8653 5.18406 16.8114 4.53706 16.5249 4.04748C16.2726 3.61631 15.8969 3.27062 15.4462 3.05498C14.9345 2.81006 14.2853 2.81006 12.987 2.81006H7.01466C5.71633 2.81006 5.06716 2.81006 4.55541 3.05489C4.10476 3.27052 3.72906 3.61621 3.47674 4.04739C3.19024 4.53706 3.13633 5.18406 3.02849 6.47789L2.44516 13.4779C2.31983 14.9816 2.25716 15.7336 2.51141 16.3136C2.73474 16.8232 3.12169 17.2437 3.61099 17.5086C4.16783 17.8101 4.92233 17.8101 6.43133 17.8101H13.5703Z" fill="#9DA4AE"/>
<path d="M13.3342 6.97673C13.3342 7.41447 13.248 7.84792 13.0804 8.25234C12.9129 8.65675 12.6674 9.02421 12.3578 9.33372C12.0483 9.64329 11.6809 9.88885 11.2764 10.0564C10.872 10.2239 10.4386 10.3102 10.0008 10.3102C9.56308 10.3102 9.12962 10.2239 8.7252 10.0564C8.32079 9.88885 7.95333 9.64329 7.64383 9.33372C7.33429 9.0242 7.08876 8.65674 6.92124 8.25233C6.75372 7.84791 6.66749 7.41446 6.66749 6.97673M3.02849 6.47789L2.44516 13.4779C2.31983 14.9816 2.25716 15.7336 2.51141 16.3136C2.73474 16.8232 3.12169 17.2437 3.61099 17.5086C4.16783 17.8101 4.92233 17.8101 6.43133 17.8101H13.5703C15.0792 17.8101 15.8337 17.8101 16.3907 17.5086C16.88 17.2437 17.2669 16.8232 17.4902 16.3136C17.7444 15.7336 17.6817 14.9816 17.5565 13.4779L16.9732 6.47789C16.8653 5.18406 16.8114 4.53706 16.5249 4.04748C16.2726 3.61631 15.8969 3.27062 15.4462 3.05498C14.9345 2.81006 14.2853 2.81006 12.987 2.81006H7.01466C5.71633 2.81006 5.06716 2.81006 4.55541 3.05489C4.10476 3.27052 3.72906 3.61621 3.47674 4.04739C3.19024 4.53706 3.13633 5.18406 3.02849 6.47789Z" stroke="#9DA4AE" stroke-width="1.66667" stroke-linecap="round" stroke-linejoin="round"/>
</g>
<defs>
<clipPath id="clip0_8_12543">
<rect width="20" height="20" fill="white" transform="translate(0 0.310059)"/>
</clipPath>
</defs>
</svg>
