<svg width="48" height="35" viewBox="0 0 48 35" fill="none" xmlns="http://www.w3.org/2000/svg">
<g clip-path="url(#clip0_3117_35)">
<path d="M28.2719 1.10357L27.3599 1.24801L26.9279 1.34431L26.4959 1.44061C28.1279 10.4443 32.9279 14.7295 37.3919 16.7999L1.43994 16.7999L1.43994 17.2332L1.43994 18.148L1.43994 18.5813L37.5839 18.5813C32.9279 20.6036 27.8879 24.9369 26.4479 33.9406L27.3599 34.085L27.8399 34.1813L28.2719 34.2295C30.4319 20.411 41.5199 18.7258 45.2159 18.5813C46.0319 18.6295 46.5119 18.5813 46.5599 18.5813L46.5119 18.148L46.5119 17.9073L46.5599 16.7517C46.5599 16.7517 46.2719 16.7517 45.8399 16.7517L44.6399 16.7517C40.5119 16.511 30.6719 14.5369 28.2719 1.10357Z" fill="#001858"/>
</g>
<defs>
<clipPath id="clip0_3117_35">
<rect width="34.6667" height="48" fill="white" transform="translate(0 35) rotate(-90)"/>
</clipPath>
</defs>
</svg>
