<svg width="48" height="35" viewBox="0 0 48 35" fill="none" xmlns="http://www.w3.org/2000/svg">
<g clip-path="url(#clip0_3117_37)">
<path d="M19.7281 33.8964L20.6401 33.752L21.0721 33.6557L21.5041 33.5594C19.8721 24.5557 15.0721 20.2705 10.6081 18.2001L46.5601 18.2001L46.5601 17.7668L46.5601 16.852L46.5601 16.4187L10.416 16.4187C15.0721 14.3964 20.1121 10.0631 21.5521 1.0594L20.6401 0.914951L20.1601 0.818655L19.7281 0.770507C17.5681 14.589 6.48005 16.2742 2.78405 16.4187C1.96805 16.3705 1.48805 16.4187 1.44005 16.4187L1.48805 16.852L1.48805 17.0927L1.44005 18.2483C1.44005 18.2483 1.72805 18.2483 2.16005 18.2483L3.36005 18.2483C7.48805 18.489 17.3281 20.4631 19.7281 33.8964Z" fill="#001858"/>
</g>
<defs>
<clipPath id="clip0_3117_37">
<rect width="34.6667" height="48" fill="white" transform="translate(48) rotate(90)"/>
</clipPath>
</defs>
</svg>
