<?xml version="1.0" encoding="UTF-8"?>
<svg version="1.1" xmlns="http://www.w3.org/2000/svg" width="182" height="182">
<path d="M0 0 C1.90309143 1.28163147 1.90309143 1.28163147 3.71704102 3.10180664 C4.40447891 3.77993912 5.09191681 4.45807159 5.80018616 5.15675354 C6.52741379 5.90037643 7.25464142 6.64399933 8.00390625 7.41015625 C8.76420639 8.17041611 9.52450653 8.93067596 10.30784607 9.713974 C11.91491156 11.32640239 13.51585071 12.94495646 15.11108398 14.5690918 C17.54285474 17.04251822 19.99504818 19.49413976 22.45117188 21.94335938 C24.01168199 23.51436914 25.57096729 25.08659668 27.12890625 26.66015625 C27.85815811 27.38960953 28.58740997 28.11906281 29.33876038 28.87062073 C35.48446399 35.15923191 40.05415538 41.17586578 40.25 50.25 C40.08710635 59.29800196 36.16536744 64.64882696 30 71 C31.64785542 73.94879391 33.33192571 76.3805002 35.5625 78.9375 C39.68838972 84.12131016 40.22440146 88.72580317 40.4609375 95.14453125 C39.04492163 103.91662959 34.06054367 109.68639315 27.91015625 115.75390625 C27.12861679 116.54022934 26.34707733 117.32655243 25.54185486 118.13670349 C23.89805412 119.78388799 22.24799709 121.42485051 20.59204102 123.05981445 C18.05590312 125.56902685 15.54772898 128.10400704 13.04101562 130.64257812 C11.43649782 132.24379439 9.83043101 133.8434603 8.22265625 135.44140625 C7.47355484 136.20062881 6.72445343 136.95985138 5.95265198 137.74208069 C5.24519333 138.43377853 4.53773468 139.12547638 3.80883789 139.83813477 C3.19246964 140.45052505 2.57610138 141.06291534 1.9410553 141.69386292 C-0.60329277 143.40595601 -1.9878402 143.47620217 -5 143 C-6.9410553 141.69386292 -6.9410553 141.69386292 -8.80883789 139.83813477 C-9.51629654 139.14643692 -10.22375519 138.45473907 -10.95265198 137.74208069 C-11.70175339 136.98285812 -12.4508548 136.22363556 -13.22265625 135.44140625 C-14.39640053 134.27483742 -14.39640053 134.27483742 -15.59385681 133.08470154 C-17.24817217 131.43379019 -18.89618378 129.77654166 -20.53833008 128.11352539 C-23.03924973 125.58599764 -25.56547804 123.0860407 -28.09570312 120.58789062 C-29.70212508 118.97816185 -31.30699382 117.36688128 -32.91015625 115.75390625 C-33.66128189 115.01290176 -34.41240753 114.27189728 -35.18629456 113.50843811 C-40.45315351 108.12371864 -44.08498234 102.736562 -45.53125 95.25 C-45.36349101 83.1713526 -39.25863861 76.16316302 -31 68 C-30.06542969 67.1234375 -29.13085938 66.246875 -28.16796875 65.34375 C-13.32460558 51.31199834 -7.87630793 37.42704008 -7 17 C-24.68293543 30.71937911 -24.68293543 30.71937911 -35.125 49.3125 C-35.00394084 52.88374525 -34.3258267 54.76829743 -33 58 C-33.375 61.8125 -33.375 61.8125 -34 65 C-36.475 65.495 -36.475 65.495 -39 66 C-43.11525115 61.19887366 -45.27725 57.19422052 -45.4375 50.8125 C-45.47746094 49.95269531 -45.51742187 49.09289062 -45.55859375 48.20703125 C-43.98481693 39.17157133 -38.37527285 32.6225352 -32.03125 26.3671875 C-31.27332153 25.6044754 -30.51539307 24.84176331 -29.73449707 24.05593872 C-28.14374811 22.46181172 -26.54676541 20.87388277 -24.94384766 19.29199219 C-22.48897211 16.8640933 -20.06216391 14.4103873 -17.63671875 11.953125 C-16.08233143 10.4020385 -14.52639551 8.852502 -12.96875 7.3046875 C-11.88261414 6.2033699 -11.88261414 6.2033699 -10.77453613 5.07980347 C-10.09032593 4.41135406 -9.40611572 3.74290466 -8.70117188 3.05419922 C-8.10558472 2.46259003 -7.50999756 1.87098083 -6.8963623 1.26144409 C-4.38141751 -0.41147582 -2.96708345 -0.45645349 0 0 Z M2 17 C1.61943372 31.48266112 2.09013842 43.64348288 12.3125 54.6875 C14.65898107 57.25602659 14.97565016 57.77679312 15.375 61.4375 C15.189375 62.7059375 15.189375 62.7059375 15 64 C12.8125 64.8125 12.8125 64.8125 10 65 C4.87881124 61.09172437 1.56588902 55.29231367 -2 50 C-5.59059847 53.44494809 -8.60909106 56.97309111 -11.5625 61 C-14.30647651 64.72838403 -17.08456793 68.40363935 -20 72 C-19.35933594 72.66644531 -18.71867187 73.33289063 -18.05859375 74.01953125 C-12.19194471 80.27087859 -7.34580874 86.56032079 -3 94 C-0.71448205 91.86729285 0.8742662 89.72414345 2.5 87.0625 C5.07446593 83.14373167 7.95560584 79.63280998 11.125 76.1875 C11.5883374 75.68379883 12.0516748 75.18009766 12.52905273 74.66113281 C15.04137262 71.97418694 17.61802877 69.39148678 20.30859375 66.8828125 C27.8496205 60.20750316 27.8496205 60.20750316 31.14453125 51.015625 C30.58358607 43.19271388 25.43091517 39.0468033 20 34 C18.33333333 32.33333333 16.66666667 30.66666667 15 29 C14.154375 28.175 13.30875 27.35 12.4375 26.5 C10 24 10 24 7.9375 21.3125 C5.99688059 18.99627683 4.6866063 18.22321576 2 17 Z M-28 79 C-34.29765464 85.68222311 -34.29765464 85.68222311 -35.875 94.4375 C-34.3114925 100.80320913 -30.18560028 105.11341314 -25.61328125 109.6171875 C-25.11080368 110.11920685 -24.60832611 110.6212262 -24.09062195 111.13845825 C-23.03829222 112.18778966 -21.98355617 113.23471302 -20.92651367 114.27929688 C-19.30124764 115.88612471 -17.68430784 117.5009946 -16.06835938 119.1171875 C-11.94872762 124.17017479 -11.94872762 124.17017479 -7 127 C-6.48453536 109.24510672 -9.04351428 97.03072583 -21.07788086 83.84570312 C-23.36140993 81.43821219 -24.80393197 80.06535601 -28 79 Z M16.8125 82.8125 C6.21855169 93.73057877 1.75737976 104.64538339 1.8125 119.75 C1.84976801 122.16861227 1.91716087 124.58232452 2 127 C6.90687153 123.0060348 11.44270563 118.6959047 15.9375 114.25 C16.52942139 113.67096924 17.12134277 113.09193848 17.73120117 112.49536133 C19.19409125 111.03589071 20.60214515 109.52187506 22 108 C22 107.34 22 106.68 22 106 C22.5775 105.79375 23.155 105.5875 23.75 105.375 C27.04664144 103.36038579 28.26778812 101.46442376 30 98 C30.8277921 92.90080069 30.61105294 89.1588935 28.1875 84.5625 C25.75396857 81.61672006 25.75396857 81.61672006 23 79 C19.95230444 79 18.95185728 80.70996471 16.8125 82.8125 Z " fill="#D5B295" transform="translate(93,20)"/>
<path d="M0 0 C0.66 0 1.32 0 2 0 C2.05883728 3.47909371 2.09387399 6.95805674 2.125 10.4375 C2.14175781 11.41138672 2.15851563 12.38527344 2.17578125 13.38867188 C2.27717988 28.5477668 2.27717988 28.5477668 -1.49584961 32.61083984 C-1.99221924 33.0692627 -2.48858887 33.52768555 -3 34 C-4.29437603 36.27631646 -5.45480214 38.59727558 -6.62109375 40.94140625 C-8.19547839 43.29183318 -9.47460222 43.8497153 -12 45 C-12.2475 45.721875 -12.495 46.44375 -12.75 47.1875 C-14.67003704 51.50758335 -18.20446451 54.25614414 -22 57 C-22.66 57 -23.32 57 -24 57 C-24.061875 57.556875 -24.12375 58.11375 -24.1875 58.6875 C-25.3480769 61.99068042 -27.40213446 63.71894733 -30 66 C-30.66 66 -31.32 66 -32 66 C-32.4640625 67.175625 -32.4640625 67.175625 -32.9375 68.375 C-34 71 -34 71 -35 73 C-35.61258141 79.44388517 -34.99005592 84.26905949 -32 90 C-30.99890485 86.68929162 -30.89643866 83.69915231 -30.9375 80.25 C-30.95103516 78.77273437 -30.95103516 78.77273437 -30.96484375 77.265625 C-30.98224609 76.14414063 -30.98224609 76.14414063 -31 75 C-30.34 75 -29.68 75 -29 75 C-29 74.01 -29 73.02 -29 72 C-28.34 72 -27.68 72 -27 72 C-26.7525 71.4225 -26.505 70.845 -26.25 70.25 C-24.80606301 67.65091342 -23.26478013 65.92163162 -21 64 C-20.01 64 -19.02 64 -18 64 C-16.3125 66.5 -16.3125 66.5 -15 69 C-16.98 68.34 -18.96 67.68 -21 67 C-26.61565601 73.29354876 -26.61565601 73.29354876 -27.875 81.4375 C-26.32274311 87.75740305 -22.3399126 91.90822591 -17.796875 96.3984375 C-17.3142218 96.8782608 -16.8315686 97.35808411 -16.33428955 97.85244751 C-14.81087521 99.36478056 -13.28061545 100.86995915 -11.75 102.375 C-10.70787007 103.40708452 -9.66619895 104.43963254 -8.625 105.47265625 C-6.08861021 107.98714596 -3.54603674 110.49527439 -1 113 C-0.82948938 96.00060756 -2.83212331 83.55360189 -15 71 C-12 71 -12 71 -10.3125 72.375 C-9 74 -9 74 -9 76 C-8.34 76 -7.68 76 -7 76 C-6.05722694 77.8306273 -5.12106924 79.66466193 -4.1875 81.5 C-3.40439453 83.03140625 -3.40439453 83.03140625 -2.60546875 84.59375 C-1.81076172 86.27984375 -1.81076172 86.27984375 -1 88 C-0.71552002 88.59554687 -0.43104004 89.19109375 -0.13793945 89.8046875 C2.33441051 95.53767293 2.3535623 100.82588868 2.1875 107 C2.16719727 108.44826172 2.16719727 108.44826172 2.14648438 109.92578125 C2.11145458 112.28445425 2.06234084 114.64191771 2 117 C2.99 116.67 3.98 116.34 5 116 C5.66 116 6.32 116 7 116 C7.33 107.75 7.66 99.5 8 91 C8.66 91 9.32 91 10 91 C10.33 90.34 10.66 89.68 11 89 C10.835 90.175625 10.67 91.35125 10.5 92.5625 C9.72728396 99.35369451 9.9190875 106.17637939 10 113 C12.85846007 110.17097124 15.71094984 107.33599221 18.5625 104.5 C19.36236328 103.70851563 20.16222656 102.91703125 20.98632812 102.1015625 C31.62595541 92.72918677 31.62595541 92.72918677 36.3125 80.25 C36.28314148 75.17097637 35.1934621 72.87086316 32 69 C31.67 68.34 31.34 67.68 31 67 C34.82524236 68.450954 36.19090966 70.38181932 38 74 C38 74.66 38 75.32 38 76 C38.66 76 39.32 76 40 76 C40.02712066 77.43739513 40.04645067 78.87493863 40.0625 80.3125 C40.07410156 81.11300781 40.08570312 81.91351563 40.09765625 82.73828125 C39.9700857 85.69281523 39.46202261 87.50101558 37.4375 89.6875 C36.963125 90.120625 36.48875 90.55375 36 91 C36.33 91.99 36.66 92.98 37 94 C37.99 94 38.98 94 40 94 C43.80817765 89.63099809 43.54390096 84.68939449 43.6875 79.1875 C43.72166016 78.30384766 43.75582031 77.42019531 43.79101562 76.50976562 C43.87310433 74.34027833 43.93823879 72.1701611 44 70 C43.05833984 69.58041016 43.05833984 69.58041016 42.09765625 69.15234375 C39.31998573 67.62643536 38.53262674 65.73207376 37 63 C35.41754725 61.24850835 35.41754725 61.24850835 34 60 C34.66 58.68 35.32 57.36 36 56 C36.33 56.99 36.66 57.98 37 59 C38.96223837 61.50562746 41.02282676 63.91238341 43.08984375 66.33203125 C46.08853823 70.52039185 47.29003876 74.68933722 47.375 79.8125 C47.40335937 80.58207031 47.43171875 81.35164063 47.4609375 82.14453125 C46.04492163 90.91662959 41.06054367 96.68639315 34.91015625 102.75390625 C34.12861679 103.54022934 33.34707733 104.32655243 32.54185486 105.13670349 C30.89805412 106.78388799 29.24799709 108.42485051 27.59204102 110.05981445 C25.05590312 112.56902685 22.54772898 115.10400704 20.04101562 117.64257812 C18.43649782 119.24379439 16.83043101 120.8434603 15.22265625 122.44140625 C14.47355484 123.20062881 13.72445343 123.95985138 12.95265198 124.74208069 C12.24519333 125.43377853 11.53773468 126.12547638 10.80883789 126.83813477 C10.19246964 127.45052505 9.57610138 128.06291534 8.9410553 128.69386292 C6.39670723 130.40595601 5.0121598 130.47620217 2 130 C0.0589447 128.69386292 0.0589447 128.69386292 -1.80883789 126.83813477 C-2.51629654 126.14643692 -3.22375519 125.45473907 -3.95265198 124.74208069 C-4.70175339 123.98285812 -5.4508548 123.22363556 -6.22265625 122.44140625 C-7.39640053 121.27483742 -7.39640053 121.27483742 -8.59385681 120.08470154 C-10.24817217 118.43379019 -11.89618378 116.77654166 -13.53833008 115.11352539 C-16.03924973 112.58599764 -18.56547804 110.0860407 -21.09570312 107.58789062 C-22.70212508 105.97816185 -24.30699382 104.36688128 -25.91015625 102.75390625 C-26.66128189 102.01290176 -27.41240753 101.27189728 -28.18629456 100.50843811 C-33.45315351 95.12371864 -37.08498234 89.736562 -38.53125 82.25 C-38.36349101 70.1713526 -32.25863861 63.16316302 -24 55 C-22.59814453 53.68515625 -22.59814453 53.68515625 -21.16796875 52.34375 C-6.32460558 38.31199834 -0.87630793 24.42704008 0 4 C-0.66 3.67 -1.32 3.34 -2 3 C-1.34 2.01 -0.68 1.02 0 0 Z " fill="#DBBFA7" transform="translate(86,33)"/>
<path d="M0 0 C4.19426397 1.64638808 7.03395038 4.72806383 10.15625 7.85546875 C10.74039673 8.43533035 11.32454346 9.01519196 11.9263916 9.61262512 C13.15936554 10.83986492 14.38973898 12.06972217 15.61767578 13.30200195 C17.48478188 15.17225623 19.36477112 17.02882631 21.24609375 18.88476562 C22.44612371 20.08252113 23.64536818 21.28106424 24.84375 22.48046875 C25.40114868 23.02865768 25.95854736 23.57684662 26.53283691 24.14164734 C32.23991809 29.91613798 36.07099113 35.95592225 36.25 44.25 C36.12026837 50.34738646 35.12289773 54.80558621 30.796875 59.27734375 C28.58147993 61.259356 26.33415193 63.1600815 24 65 C25.41490792 67.97762981 25.41490792 67.97762981 27.5 70.5 C29.18482123 72.18482123 29.94206697 73.88413395 31 76 C31.99 76.495 31.99 76.495 33 77 C33.10845027 80.04263267 33.18752063 83.08136204 33.25 86.125 C33.28351563 86.9809375 33.31703125 87.836875 33.3515625 88.71875 C33.44043755 94.49562845 32.71957126 97.53358569 29 102 C27.0625 101.6875 27.0625 101.6875 25 101 C24.67 100.01 24.34 99.02 24 98 C24.66 97.01 25.32 96.02 26 95 C26.66 95 27.32 95 28 95 C28.33 91.04 28.66 87.08 29 83 C28.34 83 27.68 83 27 83 C26.608125 82.071875 26.21625 81.14375 25.8125 80.1875 C23.85326716 76.7419526 22.67105192 75.43260563 19 74 C11.63149777 76.56827463 6.25691918 84.96719354 2.9375 91.625 C2.27465144 93.07567867 1.62186054 94.53128414 1 96 C0.35546875 94.2421875 0.35546875 94.2421875 0 92 C0.92578125 90.0703125 0.92578125 90.0703125 2.3125 88.125 C4.52283947 84.84632979 5.94281588 81.8443059 7 78 C5.515 78.99 5.515 78.99 4 80 C2.68 80 1.36 80 0 80 C-0.66 81.65 -1.32 83.3 -2 85 C-2.66 85 -3.32 85 -4 85 C-1.11852916 76.83341931 5.15669493 70.71224985 11.3046875 64.8203125 C12.06579834 64.08651367 12.82690918 63.35271484 13.61108398 62.59667969 C15.13620297 61.14022227 16.67702971 59.69999935 18.23461914 58.27832031 C23.05219211 53.68374796 25.76881351 49.81465375 26 43 C24.52387846 36.99007657 21.14657102 33.82811648 16.64453125 29.69921875 C15 28 15 28 15 26 C14.443125 25.773125 13.88625 25.54625 13.3125 25.3125 C9.03688123 22.88579746 5.86083181 19.56749627 4 15 C7 17 10 19 13 21 C13 20.01 13 19.02 13 18 C13.99 18.33 14.98 18.66 16 19 C16 19.66 16 20.32 16 21 C16.66 21 17.32 21 18 21 C17.07038578 19.84775972 16.1309875 18.70340824 15.1875 17.5625 C14.66542969 16.92441406 14.14335938 16.28632812 13.60546875 15.62890625 C11.99165589 13.7451725 11.99165589 13.7451725 9 13 C8.67 12.01 8.34 11.02 8 10 C7.175 9.175 6.35 8.35 5.5 7.5 C3 5 3 5 2 2 C1.34 2 0.68 2 0 2 C0 1.34 0 0.68 0 0 Z " fill="#D3B397" transform="translate(97,26)"/>
<path d="M0 0 C1.8125 1.3125 1.8125 1.3125 3 3 C3 3.99 3 4.98 3 6 C2.11248047 5.91298828 2.11248047 5.91298828 1.20703125 5.82421875 C-4.09143311 5.47316199 -4.09143311 5.47316199 -8.5625 8.0625 C-9.366875 9.031875 -10.17125 10.00125 -11 11 C-12.31594658 12.18624343 -13.65076116 13.35176508 -15 14.5 C-17.27293759 16.46704692 -19.43453344 18.43453344 -21.5625 20.5625 C-23.52471459 22.52471459 -25.48649515 24.24544383 -27.625 26 C-30.44767246 28.38604993 -32.39961943 30.61095879 -34 34 C-34 34.66 -34 35.32 -34 36 C-32.35 36 -30.7 36 -29 36 C-29.495 34.515 -29.495 34.515 -30 33 C-28.68 33 -27.36 33 -26 33 C-25.855625 32.4225 -25.71125 31.845 -25.5625 31.25 C-24.78125 28.125 -24.78125 28.125 -24 25 C-22.35 25.33 -20.7 25.66 -19 26 C-18.67 24.68 -18.34 23.36 -18 22 C-17.01 22 -16.02 22 -15 22 C-15 21.01 -15 20.02 -15 19 C-13.35 18.67 -11.7 18.34 -10 18 C-13.4417211 22.16629396 -17.00817017 26.03518012 -20.875 29.8125 C-30.09040816 38.28503689 -30.09040816 38.28503689 -35.125 49.3125 C-35.00394084 52.88374525 -34.3258267 54.76829743 -33 58 C-33.375 61.8125 -33.375 61.8125 -34 65 C-36.475 65.495 -36.475 65.495 -39 66 C-43.11525115 61.19887366 -45.27725 57.19422052 -45.4375 50.8125 C-45.47746094 49.95269531 -45.51742187 49.09289062 -45.55859375 48.20703125 C-43.98481693 39.17157133 -38.37527285 32.6225352 -32.03125 26.3671875 C-31.27332153 25.6044754 -30.51539307 24.84176331 -29.73449707 24.05593872 C-28.14374811 22.46181172 -26.54676541 20.87388277 -24.94384766 19.29199219 C-22.48897211 16.8640933 -20.06216391 14.4103873 -17.63671875 11.953125 C-16.08233143 10.4020385 -14.52639551 8.852502 -12.96875 7.3046875 C-11.88261414 6.2033699 -11.88261414 6.2033699 -10.77453613 5.07980347 C-10.09032593 4.41135406 -9.40611572 3.74290466 -8.70117188 3.05419922 C-8.10558472 2.46259003 -7.50999756 1.87098083 -6.8963623 1.26144409 C-4.44031052 -0.37230069 -2.89448808 -0.3316431 0 0 Z " fill="#D5B29A" transform="translate(93,20)"/>
<path d="M0 0 C2.4375 0.75 2.4375 0.75 5 2 C5.3721042 3.32303717 5.70630173 4.65737935 6 6 C7.32407669 6.68486725 8.65909241 7.34870203 10 8 C11.35386936 9.65002828 12.68678142 11.3174387 14 13 C16.12603185 14.76323505 16.12603185 14.76323505 18 16 C18.33 15.34 18.66 14.68 19 14 C19.99 13.67 20.98 13.34 22 13 C22.2475 12.360625 22.495 11.72125 22.75 11.0625 C24 9 24 9 27.625 7.75 C28.73875 7.5025 29.8525 7.255 31 7 C30.05235259 10.86956025 29.04942453 14.1365963 27 17.5625 C25.17637845 20.69684954 24.0140561 23.53530832 23 27 C22.34 27 21.68 27 21 27 C21.01160156 27.96679688 21.02320312 28.93359375 21.03515625 29.9296875 C21.06305547 33.95514674 21.04332518 37.97469732 21 42 C20.99613281 43.02867187 20.99226563 44.05734375 20.98828125 45.1171875 C20.8826728 47.57167347 20.76406244 49.66456388 20 52 C16.9375 54.125 16.9375 54.125 14 55 C13.67 54.34 13.34 53.68 13 53 C13.66 53 14.32 53 15 53 C15.02705654 39.62440403 13.8758086 29.09450259 8 17 C7.31911647 15.33909066 6.64668938 13.67451936 6 12 C5.34 12 4.68 12 4 12 C0.62467597 8.52239343 -0.66992142 5.84115252 -1 1 C-0.67 0.67 -0.34 0.34 0 0 Z " fill="#D6B396" transform="translate(73,97)"/>
<path d="M0 0 C4.19426397 1.64638808 7.03395038 4.72806383 10.15625 7.85546875 C10.74039673 8.43533035 11.32454346 9.01519196 11.9263916 9.61262512 C13.15936554 10.83986492 14.38973898 12.06972217 15.61767578 13.30200195 C17.48478188 15.17225623 19.36477112 17.02882631 21.24609375 18.88476562 C22.44612371 20.08252113 23.64536818 21.28106424 24.84375 22.48046875 C25.40114868 23.02865768 25.95854736 23.57684662 26.53283691 24.14164734 C32.23991809 29.91613798 36.07099113 35.95592225 36.25 44.25 C36.18842763 48.91410703 35.29273866 52.91336121 33 57 C30.8125 59 30.8125 59 29 60 C30.875 55.25 30.875 55.25 32 53 C32.42936942 45.39117444 32.32971455 38.28035798 30 31 C29.01 31.66 28.02 32.32 27 33 C27.2475 34.9490625 27.2475 34.9490625 27.5 36.9375 C28.17236872 43.02723954 28.68468581 49.05011756 27 55 C24.03 55.495 24.03 55.495 21 56 C21.639375 55.154375 22.27875 54.30875 22.9375 53.4375 C25.20117494 49.99348026 25.92675042 47.17522583 26 43 C24.37132951 37.02820819 21.16060698 33.84098911 16.64453125 29.69921875 C15 28 15 28 15 26 C14.443125 25.773125 13.88625 25.54625 13.3125 25.3125 C9.03688123 22.88579746 5.86083181 19.56749627 4 15 C7 17 10 19 13 21 C13 20.01 13 19.02 13 18 C13.99 18.33 14.98 18.66 16 19 C16 19.66 16 20.32 16 21 C16.66 21 17.32 21 18 21 C17.07038578 19.84775972 16.1309875 18.70340824 15.1875 17.5625 C14.66542969 16.92441406 14.14335938 16.28632812 13.60546875 15.62890625 C11.99165589 13.7451725 11.99165589 13.7451725 9 13 C8.67 12.01 8.34 11.02 8 10 C7.175 9.175 6.35 8.35 5.5 7.5 C3 5 3 5 2 2 C1.34 2 0.68 2 0 2 C0 1.34 0 0.68 0 0 Z " fill="#D7B69A" transform="translate(97,26)"/>
<path d="M0 0 C1.9375 0.8125 1.9375 0.8125 4 2 C4.33 2.99 4.66 3.98 5 5 C4.01 4.67 3.02 4.34 2 4 C1.59584424 18.12299859 2.36724935 29.94286751 12.3125 40.6875 C14.56781217 43.18051859 14.97291795 43.82058139 15.5 47.3125 C15 50 15 50 13 52 C9.86681266 52.07544502 7.83230066 51.76887453 5.48144531 49.59716797 C3.94298423 47.76253529 2.52324693 45.88098724 1.125 43.9375 C0.62742187 43.27427734 0.12984375 42.61105469 -0.3828125 41.92773438 C-1.60349842 40.2962407 -2.80381589 38.64954215 -4 37 C-4.56589844 37.7940625 -5.13179688 38.588125 -5.71484375 39.40625 C-6.44832031 40.4271875 -7.18179688 41.448125 -7.9375 42.5 C-8.66839844 43.5209375 -9.39929688 44.541875 -10.15234375 45.59375 C-10.76207031 46.3878125 -11.37179688 47.181875 -12 48 C-12.33 48 -12.66 48 -13 48 C-13 46.35 -13 44.7 -13 43 C-11.515 42.505 -11.515 42.505 -10 42 C-10 41.01 -10 40.02 -10 39 C-9.34 39 -8.68 39 -8 39 C-8 38.34 -8 37.68 -8 37 C-7.34 37 -6.68 37 -6 37 C-5.67 35.35 -5.34 33.7 -5 32 C-3.35 32.33 -1.7 32.66 0 33 C0.66 30.36 1.32 27.72 2 25 C1.34 25 0.68 25 0 25 C-1.15352646 22.69294708 -1.12900617 21.35398201 -1.1328125 18.7890625 C-1.13410156 17.95632812 -1.13539062 17.12359375 -1.13671875 16.265625 C-1.13285156 15.39421875 -1.12898438 14.5228125 -1.125 13.625 C-1.12886719 12.76132812 -1.13273437 11.89765625 -1.13671875 11.0078125 C-1.13542969 10.1725 -1.13414063 9.3371875 -1.1328125 8.4765625 C-1.13168457 7.71424316 -1.13055664 6.95192383 -1.12939453 6.16650391 C-0.99970289 3.99502536 -0.59663405 2.08733046 0 0 Z " fill="#E2CCB7" transform="translate(94,34)"/>
<path d="M0 0 C0.66 0.33 1.32 0.66 2 1 C2.28875 1.928125 2.5775 2.85625 2.875 3.8125 C4.08915867 7.25261622 5.38616799 8.54953249 8 11 C8.68177416 12.32567199 9.35191436 13.65753688 10 15 C10.66 15.33 11.32 15.66 12 16 C12.10845027 19.04263267 12.18752063 22.08136204 12.25 25.125 C12.30027344 26.40890625 12.30027344 26.40890625 12.3515625 27.71875 C12.44043755 33.49562845 11.71957126 36.53358569 8 41 C6.0625 40.6875 6.0625 40.6875 4 40 C3.505 38.515 3.505 38.515 3 37 C3.66 36.01 4.32 35.02 5 34 C5.66 34 6.32 34 7 34 C7.33 30.04 7.66 26.08 8 22 C7.34 22 6.68 22 6 22 C5.608125 21.113125 5.21625 20.22625 4.8125 19.3125 C2.88805825 15.7954168 1.11360711 13.52053909 -2 11 C-4.71163778 10.58013054 -4.71163778 10.58013054 -7 11 C-7 7 -7 7 -5.625 5.25 C-4 4 -4 4 -2 4 C-1.34 2.68 -0.68 1.36 0 0 Z " fill="#D4B094" transform="translate(118,87)"/>
<path d="M0 0 C0.66 0 1.32 0 2 0 C2.05883728 3.47909371 2.09387399 6.95805674 2.125 10.4375 C2.14175781 11.41138672 2.15851563 12.38527344 2.17578125 13.38867188 C2.27717988 28.5477668 2.27717988 28.5477668 -1.49584961 32.61083984 C-1.99221924 33.0692627 -2.48858887 33.52768555 -3 34 C-4.29437603 36.27631646 -5.45480214 38.59727558 -6.62109375 40.94140625 C-8.19547839 43.29183318 -9.47460222 43.8497153 -12 45 C-12.2475 45.721875 -12.495 46.44375 -12.75 47.1875 C-14.67003704 51.50758335 -18.20446451 54.25614414 -22 57 C-22.66 57 -23.32 57 -24 57 C-24.061875 57.556875 -24.12375 58.11375 -24.1875 58.6875 C-25.3480769 61.99068042 -27.40213446 63.71894733 -30 66 C-30.66 66 -31.32 66 -32 66 C-32.4640625 67.175625 -32.4640625 67.175625 -32.9375 68.375 C-34 71 -34 71 -35 73 C-35.09778166 75.26910971 -35.12975646 77.54128942 -35.125 79.8125 C-35.12757812 81.03582031 -35.13015625 82.25914063 -35.1328125 83.51953125 C-35.01945473 86.49017156 -34.69145246 89.1189481 -34 92 C-36 91 -36 91 -37.125 88.5625 C-39.17538055 80.21452206 -38.39447465 73.41924291 -34 66 C-30.41193668 60.87419526 -25.71341354 56.60706374 -21.16796875 52.34375 C-6.32460558 38.31199834 -0.87630793 24.42704008 0 4 C-0.66 3.67 -1.32 3.34 -2 3 C-1.34 2.01 -0.68 1.02 0 0 Z " fill="#F0E2CB" transform="translate(86,33)"/>
<path d="M0 0 C0.33 1.32 0.66 2.64 1 4 C0.34 4 -0.32 4 -1 4 C-1.33 4.99 -1.66 5.98 -2 7 C-3.9375 9.1875 -3.9375 9.1875 -6 11 C-6.66 11 -7.32 11 -8 11 C-8 11.66 -8 12.32 -8 13 C-8.66 13 -9.32 13 -10 13 C-10 13.66 -10 14.32 -10 15 C-10.66 15 -11.32 15 -12 15 C-12 15.99 -12 16.98 -12 18 C-10.88625 16.9790625 -10.88625 16.9790625 -9.75 15.9375 C-7 14 -7 14 -4.875 14.1875 C-3.946875 14.5896875 -3.946875 14.5896875 -3 15 C-2.01 15.33 -1.02 15.66 0 16 C-1 18 -1 18 -2.78515625 18.84375 C-10.7199901 22.98609712 -15.6357759 32.0543451 -19 40 C-19.64453125 38.2421875 -19.64453125 38.2421875 -20 36 C-19.07421875 34.0703125 -19.07421875 34.0703125 -17.6875 32.125 C-15.47716053 28.84632979 -14.05718412 25.8443059 -13 22 C-13.99 22.66 -14.98 23.32 -16 24 C-17.32 24 -18.64 24 -20 24 C-20.99 26.475 -20.99 26.475 -22 29 C-22.66 29 -23.32 29 -24 29 C-19.9683835 17.4220244 -8.6036686 8.36430842 0 0 Z " fill="#E3C8B1" transform="translate(117,82)"/>
<path d="M0 0 C1.8125 1.3125 1.8125 1.3125 3 3 C3 3.99 3 4.98 3 6 C2.11248047 5.91298828 2.11248047 5.91298828 1.20703125 5.82421875 C-4.09143311 5.47316199 -4.09143311 5.47316199 -8.5625 8.0625 C-9.366875 9.031875 -10.17125 10.00125 -11 11 C-12.31594658 12.18624343 -13.65076116 13.35176508 -15 14.5 C-17.27293759 16.46704692 -19.43453344 18.43453344 -21.5625 20.5625 C-23.47271021 22.47271021 -25.33713662 24.07612962 -27.4375 25.75 C-31.01221554 28.72633924 -33.21829757 32.14502492 -35.54296875 36.14453125 C-37.25951064 38.33047602 -38.29319771 38.64643482 -41 39 C-41.95010014 43.02082379 -42.16509228 46.80999747 -42.1875 50.9375 C-42.20167969 52.12214844 -42.21585938 53.30679688 -42.23046875 54.52734375 C-41.99882699 58.01767466 -41.25530126 60.7501094 -40 64 C-43.39760328 61.06570626 -44.7262488 57.87591614 -45.37109375 53.45703125 C-45.39300781 52.58433594 -45.41492187 51.71164063 -45.4375 50.8125 C-45.47746094 49.95269531 -45.51742187 49.09289062 -45.55859375 48.20703125 C-43.98481693 39.17157133 -38.37527285 32.6225352 -32.03125 26.3671875 C-31.27332153 25.6044754 -30.51539307 24.84176331 -29.73449707 24.05593872 C-28.14374811 22.46181172 -26.54676541 20.87388277 -24.94384766 19.29199219 C-22.48897211 16.8640933 -20.06216391 14.4103873 -17.63671875 11.953125 C-16.08233143 10.4020385 -14.52639551 8.852502 -12.96875 7.3046875 C-11.88261414 6.2033699 -11.88261414 6.2033699 -10.77453613 5.07980347 C-10.09032593 4.41135406 -9.40611572 3.74290466 -8.70117188 3.05419922 C-8.10558472 2.46259003 -7.50999756 1.87098083 -6.8963623 1.26144409 C-4.44031052 -0.37230069 -2.89448808 -0.3316431 0 0 Z " fill="#F1E2CB" transform="translate(93,20)"/>
<path d="M0 0 C0.66 0.33 1.32 0.66 2 1 C1.55720703 1.43231934 1.11441406 1.86463867 0.65820312 2.31005859 C-14.11685374 14.90818884 -14.11685374 14.90818884 -23.125 31.1875 C-22.99159842 35.25624815 -22.35020165 38.18766592 -21 42 C-21.99 42.495 -21.99 42.495 -23 43 C-25.11250137 36.53046457 -26.23941784 31.14616498 -23.1875 24.75 C-22.07216057 22.61333443 -21.12051674 21.11390126 -19.36328125 19.453125 C-17.65789903 17.96743919 -17.65789903 17.96743919 -18 15 C-16.68 15 -15.36 15 -14 15 C-13.855625 14.4225 -13.71125 13.845 -13.5625 13.25 C-13.04166667 11.16666667 -12.52083333 9.08333333 -12 7 C-10.35 7.33 -8.7 7.66 -7 8 C-6.67 6.68 -6.34 5.36 -6 4 C-5.01 4 -4.02 4 -3 4 C-3 3.01 -3 2.02 -3 1 C-2.01 0.67 -1.02 0.34 0 0 Z " fill="#E6D4BC" transform="translate(81,38)"/>
<path d="M0 0 C2.62187494 1.04874998 3.79371361 1.64931313 5.25 4.125 C5.4975 4.74375 5.745 5.3625 6 6 C6.66 6 7.32 6 8 6 C8.94277306 7.8306273 9.87893076 9.66466193 10.8125 11.5 C11.33457031 12.5209375 11.85664062 13.541875 12.39453125 14.59375 C12.92433594 15.7178125 13.45414063 16.841875 14 18 C14.28447998 18.59554687 14.56895996 19.19109375 14.86206055 19.8046875 C17.33441051 25.53767293 17.3535623 30.82588868 17.1875 37 C17.16719727 38.44826172 17.16719727 38.44826172 17.14648438 39.92578125 C17.11145458 42.28445425 17.06234084 44.64191771 17 47 C16.01 47 15.02 47 14 47 C13.34 45.35 12.68 43.7 12 42 C12.66 42.33 13.32 42.66 14 43 C14.46614289 28.39418948 13.12181378 15.75940011 3.1875 4.4375 C2.58292969 3.79683594 1.97835937 3.15617187 1.35546875 2.49609375 C0 1 0 1 0 0 Z " fill="#EDDDCB" transform="translate(71,103)"/>
<path d="M0 0 C3.82524236 1.450954 5.19090966 3.38181932 7 7 C7 7.66 7 8.32 7 9 C7.66 9 8.32 9 9 9 C9.02712066 10.43739513 9.04645067 11.87493863 9.0625 13.3125 C9.07410156 14.11300781 9.08570312 14.91351563 9.09765625 15.73828125 C8.97827154 18.50323108 8.62356591 20.38694363 6.609375 22.3671875 C5.99578125 22.86476563 5.3821875 23.36234375 4.75 23.875 C-1.54090149 29.19012298 -7.22125574 35.14197419 -13 41 C-13 38 -13 38 -11.05859375 35.80078125 C-10.19363281 34.97964844 -9.32867187 34.15851563 -8.4375 33.3125 C1.29370343 24.77455397 1.29370343 24.77455397 5.3125 13.25 C5.28314148 8.17097637 4.1934621 5.87086316 1 2 C0.67 1.34 0.34 0.68 0 0 Z " fill="#EFE0CD" transform="translate(117,100)"/>
<path d="M0 0 C0.33 0.99 0.66 1.98 1 3 C2.96223837 5.50562746 5.02282676 7.91238341 7.08984375 10.33203125 C11.20306188 16.07707824 11.83558395 22.13995897 11 29 C9.34473047 34.73528523 7.14349169 38.71388031 2 42 C3.04887011 39.82157747 4.07078453 37.90610216 5.53125 35.96875 C7.61741915 31.75202513 7.56620909 27.83467475 7.6875 23.1875 C7.72166016 22.30384766 7.75582031 21.42019531 7.79101562 20.50976562 C7.87310433 18.34027833 7.93823879 16.1701611 8 14 C7.05833984 13.58041016 7.05833984 13.58041016 6.09765625 13.15234375 C3.31998573 11.62643536 2.53262674 9.73207376 1 7 C-0.58245275 5.24850835 -0.58245275 5.24850835 -2 4 C-1.34 2.68 -0.68 1.36 0 0 Z " fill="#E9D7C4" transform="translate(122,89)"/>
<path d="M0 0 C2.46800047 1.15173355 4.04783565 2.04783565 6 4 C3.37992868 9.16987252 -0.5906805 12.81513644 -4.6875 16.8125 C-5.38939453 17.50537109 -6.09128906 18.19824219 -6.81445312 18.91210938 C-8.53851041 20.61271009 -10.26707278 22.30844661 -12 24 C-12 21 -12 21 -10.21484375 19.09765625 C-8.69645813 17.7407456 -7.17561933 16.3865751 -5.65234375 15.03515625 C-5.10707031 14.36355469 -4.56179687 13.69195312 -4 13 C-4.14079629 10.77923613 -4.14079629 10.77923613 -5 9 C-4.01 8.67 -3.02 8.34 -2 8 C-1.67 7.34 -1.34 6.68 -1 6 C-2.32 5.67 -3.64 5.34 -5 5 C-3.35 3.35 -1.7 1.7 0 0 Z " fill="#DFC6B2" transform="translate(119,125)"/>
<path d="M0 0 C2.475 0.495 2.475 0.495 5 1 C5 2.32 5 3.64 5 5 C5.99 5 6.98 5 8 5 C10.75 7.1875 10.75 7.1875 13 10 C12.8125 12.8125 12.8125 12.8125 12 15 C10.68 15.33 9.36 15.66 8 16 C7.87625 15.071875 7.87625 15.071875 7.75 14.125 C7.37875 13.073125 7.37875 13.073125 7 12 C6.38125 11.731875 5.7625 11.46375 5.125 11.1875 C1.7801234 9.31830426 1.22907085 6.50285192 0 3 C0 2.01 0 1.02 0 0 Z " fill="#D1B095" transform="translate(95,69)"/>
<path d="M0 0 C5.06792257 4.79398081 8.51404574 9.02831406 9.203125 16.078125 C9.3207521 21.52818076 8.70035779 26.18680997 6 31 C3.8125 33 3.8125 33 2 34 C3.875 29.25 3.875 29.25 5 27 C5.73516142 18.03344105 4.9430464 11.06028361 1 3 C0.67 2.01 0.34 1.02 0 0 Z " fill="#E6D2C0" transform="translate(124,52)"/>
<path d="M0 0 C0.66 0 1.32 0 2 0 C2.05883728 3.47909371 2.09387399 6.95805674 2.125 10.4375 C2.14175781 11.41138672 2.15851563 12.38527344 2.17578125 13.38867188 C2.21725154 19.58848075 1.57599699 25.00004295 0 31 C-0.66 31 -1.32 31 -2 31 C-1.93941406 30.22398438 -1.87882812 29.44796875 -1.81640625 28.6484375 C-1.17928286 20.43444671 -0.57909893 12.21827629 0 4 C-0.66 3.67 -1.32 3.34 -2 3 C-1.34 2.01 -0.68 1.02 0 0 Z " fill="#E7D4C1" transform="translate(86,33)"/>
<path d="M0 0 C0.66 0.33 1.32 0.66 2 1 C2.08075665 3.29109597 2.13907731 5.58299267 2.1875 7.875 C2.22230469 9.15117188 2.25710937 10.42734375 2.29296875 11.7421875 C2.19628906 12.81726563 2.09960938 13.89234375 2 15 C1.01 15.66 0.02 16.32 -1 17 C-3.49118146 11.32010626 -4.38766322 8.05525768 -3 2 C-2.34 2 -1.68 2 -1 2 C-0.67 1.34 -0.34 0.68 0 0 Z " fill="#D6AF93" transform="translate(54,107)"/>
<path d="M0 0 C3.2586636 1.4264578 5.4024854 3.16704162 7.890625 5.6953125 C8.95410156 6.76845703 8.95410156 6.76845703 10.0390625 7.86328125 C11.13347656 8.98283203 11.13347656 8.98283203 12.25 10.125 C12.99507812 10.87910156 13.74015625 11.63320313 14.5078125 12.41015625 C16.3431342 14.26900772 18.1736191 16.13237005 20 18 C19.01 18.33 18.02 18.66 17 19 C16.236875 18.195625 15.47375 17.39125 14.6875 16.5625 C12.20569102 13.83200976 12.20569102 13.83200976 9 13 C8.67 12.01 8.34 11.02 8 10 C7.175 9.175 6.35 8.35 5.5 7.5 C3 5 3 5 2 2 C1.34 2 0.68 2 0 2 C0 1.34 0 0.68 0 0 Z " fill="#EADCC7" transform="translate(97,26)"/>
<path d="M0 0 C0.66 0.33 1.32 0.66 2 1 C0.68 2.65 -0.64 4.3 -2 6 C-1.32453125 6.72445312 -0.6490625 7.44890625 0.046875 8.1953125 C0.93890625 9.16210938 1.8309375 10.12890625 2.75 11.125 C3.63171875 12.07632813 4.5134375 13.02765625 5.421875 14.0078125 C7.92271085 16.91029774 9.95213096 19.77508474 12 23 C11.67 23.66 11.34 24.32 11 25 C10.38511719 24.25943359 10.38511719 24.25943359 9.7578125 23.50390625 C8.94957031 22.54291016 8.94957031 22.54291016 8.125 21.5625 C7.59132813 20.92441406 7.05765625 20.28632812 6.5078125 19.62890625 C5.0777243 17.89194996 5.0777243 17.89194996 3 17 C2.02410986 15.24339775 1.04919638 13.48621667 0.0859375 11.72265625 C-1.26920214 9.57295631 -2.83915851 8.31193948 -5 7 C-3.70700306 4.11562221 -2.34058637 2.12780579 0 0 Z " fill="#EDDCCF" transform="translate(76,86)"/>
<path d="M0 0 C0.9075 0.61875 1.815 1.2375 2.75 1.875 C5.74262565 3.9734062 5.74262565 3.9734062 8.25 4.9375 C10.73971849 6.4491148 11.14599504 8.29565096 12 11 C12.66 11 13.32 11 14 11 C15.2890625 12.53125 15.2890625 12.53125 16.625 14.5 C17.07101563 15.1496875 17.51703125 15.799375 17.9765625 16.46875 C18.31429687 16.9740625 18.65203125 17.479375 19 18 C18.67 18.66 18.34 19.32 18 20 C16.82737096 18.88121617 15.66204862 17.75476949 14.5 16.625 C13.8503125 15.99851562 13.200625 15.37203125 12.53125 14.7265625 C11 13 11 13 11 11 C10.443125 10.773125 9.88625 10.54625 9.3125 10.3125 C5.03688123 7.88579746 1.86083181 4.56749627 0 0 Z " fill="#F0E2D5" transform="translate(101,41)"/>
<path d="M0 0 C-0.66 2.31 -1.32 4.62 -2 7 C-2.99 7 -3.98 7 -5 7 C-5 7.66 -5 8.32 -5 9 C-6.65 9.66 -8.3 10.32 -10 11 C-9.44744856 7.68469134 -8.9252298 4.7915832 -7 2 C-4.54454828 0.77227414 -2.7523245 0 0 0 Z " fill="#D0B08F" transform="translate(104,104)"/>
<path d="M0 0 C1.18914834 3.56744502 0.63096667 5.31863583 0 9 C-0.06656312 11.63589958 -0.09567411 14.24148596 -0.0625 16.875 C-0.05573242 17.90753906 -0.05573242 17.90753906 -0.04882812 18.9609375 C-0.03716336 20.64066335 -0.01923271 22.32034375 0 24 C1.32 23.01 2.64 22.02 4 21 C3.4409112 24.24271506 2.5867822 25.93057424 0 28 C-0.66 28 -1.32 28 -2 28 C-2 19.42 -2 10.84 -2 2 C-1.34 2 -0.68 2 0 2 C0 1.34 0 0.68 0 0 Z " fill="#F0DDC6" transform="translate(96,122)"/>
<path d="M0 0 C0.33 1.32 0.66 2.64 1 4 C0.34 4 -0.32 4 -1 4 C-1.33 4.99 -1.66 5.98 -2 7 C-3.9375 9.1875 -3.9375 9.1875 -6 11 C-6.66 11 -7.32 11 -8 11 C-8 11.66 -8 12.32 -8 13 C-8.66 13 -9.32 13 -10 13 C-10 13.66 -10 14.32 -10 15 C-11.65 15.33 -13.3 15.66 -15 16 C-10.30233025 10.33870569 -5.25276628 5.14771096 0 0 Z " fill="#EED8C6" transform="translate(117,82)"/>
<path d="M0 0 C1.51209288 4.34972173 0.15373183 6.68790428 -1.7578125 10.67578125 C-6.48260372 19.51619249 -6.48260372 19.51619249 -10.15625 20.6875 C-10.7646875 20.790625 -11.373125 20.89375 -12 21 C-11.55269531 20.32195312 -11.10539062 19.64390625 -10.64453125 18.9453125 C-6.65649102 12.80594139 -3.11789896 6.62373926 0 0 Z " fill="#F3E1CE" transform="translate(84,58)"/>
<path d="M0 0 C2 3 2 3 1.625 5.6875 C1.41875 6.450625 1.2125 7.21375 1 8 C-0.65 8.33 -2.3 8.66 -4 9 C-4.66 7.35 -5.32 5.7 -6 4 C-5.34 4 -4.68 4 -4 4 C-4 3.01 -4 2.02 -4 1 C-2 0 -2 0 0 0 Z " fill="#D6BDAA" transform="translate(58,77)"/>
<path d="M0 0 C1.32 0.33 2.64 0.66 4 1 C5.29561672 7.31613149 5.78161678 13.75020145 4 20 C2.02 20.33 0.04 20.66 -2 21 C-1.360625 20.154375 -0.72125 19.30875 -0.0625 18.4375 C2.20530621 14.97909552 2.92769732 12.1935555 3 8 C2.21702885 5.18031275 1.1813576 2.69349533 0 0 Z " fill="#EFE2CE" transform="translate(120,61)"/>
<path d="M0 0 C0.53625 0.680625 1.0725 1.36125 1.625 2.0625 C2.90205198 3.64201166 4.19989075 5.20964152 5.6015625 6.6796875 C9.88665672 11.24910077 9.88665672 11.24910077 10.5 15.3125 C10 18 10 18 8 20 C5.875 19.625 5.875 19.625 4 19 C5.32 18.34 6.64 17.68 8 17 C8 15.68 8 14.36 8 13 C6.0399719 11.36323743 6.0399719 11.36323743 4 10 C4 9.34 4 8.68 4 8 C3.01 8 2.02 8 1 8 C0.67 5.36 0.34 2.72 0 0 Z " fill="#EDE0C4" transform="translate(99,66)"/>
<path d="M0 0 C1.65 0 3.3 0 5 0 C5.66 1.32 6.32 2.64 7 4 C7.99 4 8.98 4 10 4 C10 4.66 10 5.32 10 6 C7.27958849 6.75566986 5.4981783 7.13838286 2.75 6.375 C1 5 1 5 0.25 2.375 C0.1675 1.59125 0.085 0.8075 0 0 Z " fill="#D4AE92" transform="translate(60,129)"/>
<path d="M0 0 C4.49652778 -0.36458333 4.49652778 -0.36458333 6.8125 1.3125 C8 3 8 3 8 6 C4.7 6 1.4 6 -2 6 C-1.34 4.02 -0.68 2.04 0 0 Z " fill="#DABAA7" transform="translate(88,20)"/>
<path d="M0 0 C1.32 0.66 2.64 1.32 4 2 C3 4 3 4 1 5 C1 6.32 1 7.64 1 9 C0.01 8.67 -0.98 8.34 -2 8 C-2.66666667 6.33333333 -3.33333333 4.66666667 -4 3 C-4.99 2.67 -5.98 2.34 -7 2 C-2.25 0.875 -2.25 0.875 0 2 C0 1.34 0 0.68 0 0 Z " fill="#DAB9A3" transform="translate(72,94)"/>
<path d="M0 0 C0.99 0.33 1.98 0.66 3 1 C3 1.66 3 2.32 3 3 C3.66 3 4.32 3 5 3 C5 2.34 5 1.68 5 1 C7.37948772 1.17625835 8.70225849 1.69719773 10.37890625 3.40234375 C11.62115486 4.90649092 12.81376056 6.45129851 14 8 C13.46375 7.71125 12.9275 7.4225 12.375 7.125 C9.64719516 5.83288192 6.87387282 4.91441408 4 4 C4 4.66 4 5.32 4 6 C3.01 5.67 2.02 5.34 1 5 C0.67 3.35 0.34 1.7 0 0 Z " fill="#E5C9AF" transform="translate(110,44)"/>
<path d="M0 0 C0.33 0.99 0.66 1.98 1 3 C3.06233512 5.60145178 5.2181413 8.10828885 7.3828125 10.625 C8.18332031 11.800625 8.18332031 11.800625 9 13 C8.67 13.99 8.34 14.98 8 16 C8 15.34 8 14.68 8 14 C7.401875 13.773125 6.80375 13.54625 6.1875 13.3125 C3.41467511 11.64880506 2.56699864 9.79334541 1 7 C-0.58245275 5.24850835 -0.58245275 5.24850835 -2 4 C-1.34 2.68 -0.68 1.36 0 0 Z " fill="#F0DBCB" transform="translate(122,89)"/>
<path d="M0 0 C0.99 0.33 1.98 0.66 3 1 C2.690625 1.598125 2.38125 2.19625 2.0625 2.8125 C0.89790296 5.08956772 0.89790296 5.08956772 0 8 C-1.32 7.67 -2.64 7.34 -4 7 C-3.43628586 3.73045798 -2.50037734 2.17424117 0 0 Z " fill="#D7AE8C" transform="translate(67,45)"/>
<path d="M0 0 C1 3 1 3 0.25 5 C-0.99376836 6.99002937 -2.31301222 8.38330338 -4 10 C-4.99 11.485 -4.99 11.485 -6 13 C-6.66 13 -7.32 13 -8 13 C-6.40956621 7.91061189 -3.2553049 4.12543357 0 0 Z " fill="#F0DFD2" transform="translate(101,98)"/>
<path d="M0 0 C0.33 0.66 0.66 1.32 1 2 C0.07161713 3.31896465 -0.86805732 4.62998689 -1.8125 5.9375 C-2.59560547 7.03384766 -2.59560547 7.03384766 -3.39453125 8.15234375 C-5 10 -5 10 -8 11 C-7.43040847 7.37386801 -6.07625466 5.74482259 -3.4375 3.25 C-2.79683594 2.63640625 -2.15617187 2.0228125 -1.49609375 1.390625 C-1.00238281 0.93171875 -0.50867188 0.4728125 0 0 Z " fill="#EFDBD0" transform="translate(86,22)"/>
<path d="M0 0 C1.32 1.32 2.64 2.64 4 4 C3.01 4.66 2.02 5.32 1 6 C0.67 6.99 0.34 7.98 0 9 C-1.32 7.68 -2.64 6.36 -4 5 C-2.68 3.35 -1.36 1.7 0 0 Z " fill="#D2B59E" transform="translate(120,93)"/>
<path d="M0 0 C0.66 0.33 1.32 0.66 2 1 C-0.97 3.97 -3.94 6.94 -7 10 C-7.33 9.34 -7.66 8.68 -8 8 C-7.0625 5.875 -7.0625 5.875 -6 4 C-5.01 4 -4.02 4 -3 4 C-3 3.01 -3 2.02 -3 1 C-2.01 0.67 -1.02 0.34 0 0 Z " fill="#E3C8B2" transform="translate(81,38)"/>
<path d="M0 0 C0.99 0.33 1.98 0.66 3 1 C2.67 2.65 2.34 4.3 2 6 C0.68 6.33 -0.64 6.66 -2 7 C-1.34 4.69 -0.68 2.38 0 0 Z " fill="#CCB8A7" transform="translate(105,78)"/>
<path d="M0 0 C1.67110042 2.96178773 2.32682752 5.37071192 2.625 8.75 C2.69976562 9.54921875 2.77453125 10.3484375 2.8515625 11.171875 C2.90054688 11.77515625 2.94953125 12.3784375 3 13 C0.46800028 10.46800028 -0.11946497 8.45440665 -1 5 C-0.625 2.125 -0.625 2.125 0 0 Z " fill="#D2B8A3" transform="translate(85,116)"/>
<path d="M0 0 C0.66 0 1.32 0 2 0 C3.06652192 2.30368736 4.06421005 4.64018187 5 7 C4.67 7.66 4.34 8.32 4 9 C3.34 9 2.68 9 2 9 C2 7.35 2 5.7 2 4 C1.01 3.67 0.02 3.34 -1 3 C-0.67 2.01 -0.34 1.02 0 0 Z " fill="#D1AE90" transform="translate(77,101)"/>
<path d="M0 0 C0.66 0 1.32 0 2 0 C1.5206753 4.31392226 0.2542015 6.16569547 -3 9 C-3 7.35 -3 5.7 -3 4 C-2.01 3.67 -1.02 3.34 0 3 C0 2.01 0 1.02 0 0 Z " fill="#DEC7B7" transform="translate(84,73)"/>
<path d="M0 0 C1.12377697 3.30435084 0.89554742 5.0506862 -0.4375 8.25 C-0.72496094 8.95640625 -1.01242188 9.6628125 -1.30859375 10.390625 C-1.53675781 10.92171875 -1.76492187 11.4528125 -2 12 C-2.99 12 -3.98 12 -5 12 C-3.41037341 7.96479403 -1.71767682 3.98188718 0 0 Z " fill="#FBEEE4" transform="translate(84,58)"/>
<path d="M0 0 C0.33 1.32 0.66 2.64 1 4 C0.34 4 -0.32 4 -1 4 C-1.33 4.99 -1.66 5.98 -2 7 C-3.32 6.67 -4.64 6.34 -6 6 C-4.02 4.02 -2.04 2.04 0 0 Z " fill="#EDE1CE" transform="translate(117,82)"/>
<path d="M0 0 C4.2742558 1.5830577 6.26531794 4.50568404 9 8 C4.32307692 6.52307692 4.32307692 6.52307692 2.6875 3.875 C2.460625 3.25625 2.23375 2.6375 2 2 C1.34 2 0.68 2 0 2 C0 1.34 0 0.68 0 0 Z " fill="#F2E4DC" transform="translate(97,26)"/>
<path d="M0 0 C0.66 0.33 1.32 0.66 2 1 C0.68 2.65 -0.64 4.3 -2 6 C-1.01 7.485 -1.01 7.485 0 9 C-2.475 8.01 -2.475 8.01 -5 7 C-3.70700306 4.11562221 -2.34058637 2.12780579 0 0 Z " fill="#F6DCC4" transform="translate(76,86)"/>
<path d="M0 0 C2 0 2 0 3.5078125 1.4609375 C4.04148437 2.09257813 4.57515625 2.72421875 5.125 3.375 C5.66382812 4.00148438 6.20265625 4.62796875 6.7578125 5.2734375 C8 7 8 7 8 9 C3.33845958 7.50164772 2.13389249 4.11536409 0 0 Z " fill="#EFE5D9" transform="translate(95,76)"/>
<path d="M0 0 C1.65 0.33 3.3 0.66 5 1 C3.35 2.65 1.7 4.3 0 6 C-0.66 4.68 -1.32 3.36 -2 2 C-1.34 2 -0.68 2 0 2 C0 1.34 0 0.68 0 0 Z " fill="#DBC0A6" transform="translate(121,85)"/>
<path d="M0 0 C0.66 0.33 1.32 0.66 2 1 C2 1.99 2 2.98 2 4 C2.66 4 3.32 4 4 4 C4.33 5.65 4.66 7.3 5 9 C3.02 7.35 1.04 5.7 -1 4 C-0.67 2.68 -0.34 1.36 0 0 Z " fill="#F3E8DA" transform="translate(90,67)"/>
<path d="M0 0 C3.39417765 3.12621626 5.6062718 5.56541027 7 10 C4 9 4 9 2.375 6.125 C1 3 1 3 0 0 Z " fill="#F2E4D7" transform="translate(124,52)"/>
<path d="M0 0 C0.33 1.32 0.66 2.64 1 4 C-0.8125 5.5625 -0.8125 5.5625 -3 7 C-3.99 6.67 -4.98 6.34 -6 6 C-4.02 4.02 -2.04 2.04 0 0 Z " fill="#F3E6DA" transform="translate(77,31)"/>
<path d="M0 0 C4.55384615 -0.36923077 4.55384615 -0.36923077 6.8125 1.5 C7.204375 1.995 7.59625 2.49 8 3 C7.67 3.66 7.34 4.32 7 5 C6.01 4.34 5.02 3.68 4 3 C2.34450469 2.61500109 0.6777567 2.27206865 -1 2 C-0.67 1.34 -0.34 0.68 0 0 Z " fill="#F5E5D1" transform="translate(88,20)"/>
<path d="M0 0 C0.66 0.33 1.32 0.66 2 1 C-0.75 5.875 -0.75 5.875 -3 7 C-3.1875 4.625 -3.1875 4.625 -3 2 C-2.01 1.34 -1.02 0.68 0 0 Z " fill="#E0CCB4" transform="translate(105,146)"/>
<path d="M0 0 C0.33 0 0.66 0 1 0 C1.2295711 3.36704285 1.33943529 5.41370268 -0.375 8.375 C-0.91125 8.91125 -1.4475 9.4475 -2 10 C-2.66 10 -3.32 10 -4 10 C-3.34 8.35 -2.68 6.7 -2 5 C-1.34 5 -0.68 5 0 5 C0 3.35 0 1.7 0 0 Z " fill="#D5B89C" transform="translate(86,59)"/>
</svg>
